<svg width="22" height="22" viewBox="0 0 22 22" fill="none" xmlns="http://www.w3.org/2000/svg">
<path d="M11 19.25C13.3348 19.1927 15.279 18.387 16.8327 16.8327C18.3865 15.2785 19.1922 13.3343 19.25 11C19.1927 8.66525 18.387 6.721 16.8327 5.16725C15.2785 3.6135 13.3343 2.80775 11 2.75C8.66525 2.80729 6.721 3.61304 5.16725 5.16725C3.6135 6.72146 2.80775 8.66571 2.75 11C2.80729 13.3348 3.61304 15.279 5.16725 16.8327C6.72146 18.3865 8.66571 19.1922 11 19.25ZM11 20.625C8.27842 20.5535 6.01173 19.6119 4.19994 17.8001C2.38815 15.9883 1.4465 13.7216 1.375 11C1.4465 8.27842 2.38815 6.01173 4.19994 4.19994C6.01173 2.38815 8.27842 1.4465 11 1.375C13.7216 1.4465 15.9883 2.38815 17.8001 4.19994C19.6119 6.01173 20.5535 8.27842 20.625 11C20.5535 13.7216 19.6119 15.9883 17.8001 17.8001C15.9883 19.6119 13.7216 20.5535 11 20.625ZM11 2.0625C11.2008 2.0625 11.3655 2.1269 11.4943 2.25569C11.6231 2.38448 11.6875 2.54925 11.6875 2.75V6.875C11.6875 7.07575 11.6231 7.24052 11.4943 7.36931C11.3655 7.4981 11.2008 7.5625 11 7.5625C10.7992 7.5625 10.6345 7.4981 10.5057 7.36931C10.3769 7.24052 10.3125 7.07575 10.3125 6.875V2.75C10.3125 2.54925 10.3769 2.38448 10.5057 2.25569C10.6345 2.1269 10.7992 2.0625 11 2.0625ZM11 14.4375C11.2008 14.4375 11.3655 14.5019 11.4943 14.6307C11.6231 14.7595 11.6875 14.9242 11.6875 15.125V19.25C11.6875 19.4508 11.6231 19.6155 11.4943 19.7443C11.3655 19.8731 11.2008 19.9375 11 19.9375C10.7992 19.9375 10.6345 19.8731 10.5057 19.7443C10.3769 19.6155 10.3125 19.4508 10.3125 19.25V15.125C10.3125 14.9242 10.3769 14.7595 10.5057 14.6307C10.6345 14.5019 10.7992 14.4375 11 14.4375ZM2.0625 11C2.0625 10.7992 2.1269 10.6345 2.25569 10.5057C2.38448 10.3769 2.54925 10.3125 2.75 10.3125H6.875C7.07575 10.3125 7.24052 10.3769 7.36931 10.5057C7.4981 10.6345 7.5625 10.7992 7.5625 11C7.5625 11.2008 7.4981 11.3655 7.36931 11.4943C7.24052 11.6231 7.07575 11.6875 6.875 11.6875H2.75C2.54925 11.6875 2.38448 11.6231 2.25569 11.4943C2.1269 11.3655 2.0625 11.2008 2.0625 11ZM14.4375 11C14.4375 10.7992 14.5019 10.6345 14.6307 10.5057C14.7595 10.3769 14.9242 10.3125 15.125 10.3125H19.25C19.4508 10.3125 19.6155 10.3769 19.7443 10.5057C19.8731 10.6345 19.9375 10.7992 19.9375 11C19.9375 11.2008 19.8731 11.3655 19.7443 11.4943C19.6155 11.6231 19.4508 11.6875 19.25 11.6875H15.125C14.9242 11.6875 14.7595 11.6231 14.6307 11.4943C14.5019 11.3655 14.4375 11.2008 14.4375 11Z" fill="#606266"/>
</svg>
