<svg width="18" height="19" viewBox="0 0 18 19" fill="none" xmlns="http://www.w3.org/2000/svg">
<path d="M9 10C10.1747 9.97112 11.1487 9.57008 11.9219 8.79688C12.6951 8.02367 13.0961 7.04971 13.125 5.875C13.0961 4.70029 12.6951 3.72633 11.9219 2.95312C11.1487 2.17992 10.1747 1.77887 9 1.75C7.82529 1.77887 6.85133 2.17992 6.07812 2.95312C5.30492 3.72633 4.90387 4.70029 4.875 5.875C4.90387 7.04971 5.30492 8.02367 6.07812 8.79688C6.85133 9.57008 7.82529 9.97112 9 10ZM9 11.375C7.43892 11.3319 6.14275 10.7948 5.1115 9.7635C4.08025 8.73225 3.54308 7.43608 3.5 5.875C3.54308 4.31392 4.08025 3.01775 5.1115 1.9865C6.14275 0.95525 7.43892 0.418083 9 0.375C10.5611 0.418083 11.8573 0.95525 12.8885 1.9865C13.9198 3.01775 14.4569 4.31392 14.5 5.875C14.4569 7.43608 13.9198 8.73225 12.8885 9.7635C11.8573 10.7948 10.5611 11.3319 9 11.375ZM15.875 18.25V16.1875C15.8608 15.6004 15.6603 15.1134 15.2734 14.7266C14.8866 14.3397 14.3996 14.1392 13.8125 14.125H4.1875C3.60037 14.1392 3.1134 14.3397 2.72656 14.7266C2.33973 15.1134 2.13921 15.6004 2.125 16.1875V18.25C2.125 18.4508 2.0606 18.6155 1.93181 18.7443C1.80302 18.8731 1.63825 18.9375 1.4375 18.9375C1.23675 18.9375 1.07198 18.8731 0.943188 18.7443C0.814396 18.6155 0.75 18.4508 0.75 18.25V16.1875C0.778875 15.2135 1.11552 14.4044 1.75994 13.7599C2.40435 13.1155 3.21354 12.7789 4.1875 12.75H13.8125C14.7865 12.7789 15.5956 13.1155 16.2401 13.7599C16.8845 14.4044 17.2211 15.2135 17.25 16.1875V18.25C17.25 18.4508 17.1856 18.6155 17.0568 18.7443C16.928 18.8731 16.7633 18.9375 16.5625 18.9375C16.3617 18.9375 16.197 18.8731 16.0682 18.7443C15.9394 18.6155 15.875 18.4508 15.875 18.25Z" fill="white"/>
</svg>
