<svg width="25" height="25" viewBox="0 0 25 25" fill="none" xmlns="http://www.w3.org/2000/svg">
<circle cx="12.5" cy="12.5" r="12.5" fill="white"/>
<path d="M12.2273 18V9.27273H13.5682V18H12.2273ZM12.9091 7.81818C12.6477 7.81818 12.4223 7.72917 12.233 7.55114C12.0473 7.37311 11.9545 7.15909 11.9545 6.90909C11.9545 6.65909 12.0473 6.44508 12.233 6.26705C12.4223 6.08902 12.6477 6 12.9091 6C13.1705 6 13.3939 6.08902 13.5795 6.26705C13.7689 6.44508 13.8636 6.65909 13.8636 6.90909C13.8636 7.15909 13.7689 7.37311 13.5795 7.55114C13.3939 7.72917 13.1705 7.81818 12.9091 7.81818Z" fill="#606266"/>
</svg>
